<svg width="952" height="687" viewBox="0 0 952 687" fill="none" xmlns="http://www.w3.org/2000/svg">
<path d="M152.848 108.842C153.928 108.842 155.009 108.842 268.963 90.7517C382.917 72.6615 609.711 36.4809 739.634 17.3214C869.557 -1.8381 895.737 -2.88013 802.898 45.0697C710.059 93.0196 497.406 189.993 363.818 255.047C230.23 320.101 182.15 350.297 174.543 361.834C166.937 373.371 201.26 365.334 330.707 317.892C460.154 270.45 683.684 183.847 804.264 137.815C924.844 91.783 935.701 88.9473 943.763 87.0993C951.824 85.2512 956.763 84.4766 804.347 177.948C651.931 271.419 342.011 459.16 177.633 559.66C13.2558 660.16 3.81207 667.731 5.09491 670.326C6.37774 672.922 18.6733 670.312 155.713 620.868C292.753 571.425 554.165 475.226 697.152 423.506C856.087 366.019 880.264 362.264 887.099 364.784C887.594 368.046 882.051 375.336 800.317 428.452C718.584 481.567 560.828 580.288 398.292 682.001" stroke="#FF0090" stroke-width="10" stroke-linecap="round" stroke-linejoin="round"/>
</svg>
