<svg width="840" height="739" viewBox="0 0 840 739" fill="none" xmlns="http://www.w3.org/2000/svg">
<path d="M598.655 5C598.356 5 537.446 8.36187 422.637 18.7898C368.347 23.7208 323.075 36.5241 280.462 52.4226C237.85 68.3211 199.513 89.1266 164.05 113.97C128.587 138.814 97.16 167.065 72.3309 197.123C47.5017 227.182 30.2231 258.191 19.0945 290.573C7.96595 322.955 3.51095 355.769 5.43377 388.998C7.35658 422.228 15.7922 454.877 31.0897 487.137C46.3872 519.396 68.291 550.277 95.1131 579.182C121.935 608.086 153.012 634.079 188.95 656.593C224.888 679.107 264.746 697.355 307.144 710.564C349.542 723.772 393.272 731.388 436.203 733.295C479.134 735.202 519.94 731.17 556.972 724.112C594.004 717.054 626.024 707.092 664.562 691.459C748.316 657.486 804.158 622.586 823.773 599.009C833.543 587.263 836.065 571.002 834.18 551.136C832.295 531.271 824.168 507.026 805.998 476.858C787.828 446.69 759.861 411.334 720.482 374.604C681.103 337.874 631.159 300.842 576.122 268.897C521.086 236.953 462.47 211.218 410.875 192.822C359.28 174.427 316.483 164.15 272.39 153.562" stroke="#FF0090" stroke-width="10" stroke-linecap="round" stroke-linejoin="round"/>
</svg>
