<svg width="999" height="590" viewBox="0 0 999 590" fill="none" xmlns="http://www.w3.org/2000/svg">
<path d="M418.397 585C420.37 585 422.343 585 453.205 583.673C484.066 582.346 543.757 579.691 594.797 574.038C645.837 568.386 686.418 559.814 725.352 547.825C764.286 535.836 800.343 520.688 832.968 502.271C865.593 483.853 893.692 462.623 917.171 439.17C961.517 394.875 984.127 338.546 992.702 285.656C996.931 259.569 990.559 233.173 977.479 205.335C964.4 177.497 942.159 148.547 908.37 120.506C874.581 92.4653 829.919 66.2108 776.476 46.2691C723.034 26.3274 662.164 13.4939 596.477 7.94448C530.791 2.39503 462.131 4.51848 396.703 15.7761C331.274 27.0336 271.158 47.361 219.739 73.8951C168.32 100.429 127.42 132.554 95.9705 163.225C64.521 193.896 43.7618 222.14 29.1705 250.817C14.5791 279.494 6.78469 307.748 5.26245 337.518C3.74021 367.288 8.72635 397.717 23.1954 424.515C37.6644 451.313 61.4652 473.558 95.0893 491.74C128.713 509.923 171.439 523.37 223.361 532.876C275.282 542.383 335.103 547.542 393.02 548.319C450.938 549.095 505.139 545.333 549.771 538.133C594.403 530.932 627.824 520.408 656.644 507.899C685.465 495.391 708.672 481.217 726.819 468.357C744.966 455.497 757.35 444.38 770.108 432.926" stroke="#FF0090" stroke-width="10" stroke-linecap="round" stroke-linejoin="round"/>
</svg>
